<?xml version="1.0" encoding="utf-8"?>
<!-- Generator: Adobe Illustrator 23.0.1, SVG Export Plug-In . SVG Version: 6.00 Build 0)  -->
<svg version="1.1" id="Layer_1" xmlns="http://www.w3.org/2000/svg" xmlns:xlink="http://www.w3.org/1999/xlink" x="0px" y="0px"
	 viewBox="0 0 1000 1000" style="enable-background:new 0 0 1000 1000;" xml:space="preserve">
<style type="text/css">
	.st0{fill:#A01975;}
	.st1{fill:#EF7F07;}
</style>
<g>
	<path class="st0" d="M143.8,492.5c0.5-6-0.1-12,0.4-18.3c1-0.1,1.9-0.4,2.8-0.4c14.3,0,28.6,0,43,0c0.7,0,1.4,0.2,2,0.2
		c0.2,0.2,0.3,0.3,0.3,0.4c0.1,0.1,0.1,0.2,0.2,0.3c0.1,0.4,0.2,0.8,0.2,1.2c0,60.1,0,120.2,0,180.3c0,0.4-0.1,0.8-0.2,1.5
		c-0.8,0.1-1.7,0.4-2.6,0.4c-14.3,0-28.7,0-43,0c-0.7,0-1.4-0.2-2.5-0.3c-0.1-1.1-0.3-2.2-0.3-3.3c0-4.6,0-9.3,0-13.9
		c0-1.1-0.2-2.1-0.4-3.8c-1.5,1.1-2.5,1.8-3.4,2.5c-8.5,6.9-18,12-28.4,15.3c-6,1.9-12.2,2.9-18.5,3.5c-12.3,1.2-24.3-0.3-35.9-4.2
		c-24.4-8.1-41.1-24.5-50.5-48.3c-3.6-9-5.7-18.3-6.3-27.9c-0.3-5.3-0.7-10.7-0.5-16c0.8-20.5,7-39.1,20-55.1
		c14.6-18,33.6-28.5,56.5-31.9c15.1-2.2,30-1.2,44.3,4.8c6.7,2.8,13,6.3,18.7,10.7c1.1,0.9,2.3,1.7,3.4,2.6L143.8,492.5z
		 M91.8,518.1c-2,0.2-5,0.4-7.9,1C59,524.2,43,547.6,45.6,572.7c1.5,13.9,7.7,25.6,18.9,34.2c12.2,9.3,26,12.2,40.8,7.8
		c23.2-7,37.1-30.4,33.6-54.5c-1.6-11.5-6.7-21.3-15.2-29.3C115,522.6,104.6,518.6,91.8,518.1"/>
	<path class="st0" d="M863.6,584.3h-43.3c-14.3,0-28.7,0-43,0c-14.3,0-28.6,0-43.2,0c0.2,1.3,0.2,2.1,0.5,2.8
		c2,6,5.4,11.1,10.3,15.2c7.3,6.1,15.8,9.1,25.1,10.3c12.2,1.6,24,0.1,35.6-4c6.9-2.5,13.4-5.9,18.4-11.6c0.2-0.2,0.5-0.3,1.1-0.7
		c10.4,10,20.5,20.3,31.1,30.8c-2.7,3-5.3,5.7-8.3,8.1c-11.8,9.6-25.3,15.8-39.9,19.5c-8.1,2.1-16.3,3.1-24.7,3.4
		c-14.5,0.5-28.5-1.2-42.2-6c-12.6-4.4-23.6-11.2-32.9-20.7c-7.9-8.1-13.7-17.4-17.8-27.9c-5.6-14.3-7.2-29.1-6.6-44.3
		c0.5-13.4,3.4-26.2,9.2-38.2c10.1-20.6,26.2-34.4,47.7-42c8.4-3,17.1-4.5,25.9-5.3c12.5-1.1,24.9-0.2,37.1,2.7
		c19.5,4.6,35.5,14.7,46.7,31.6c7,10.6,11,22.3,13,34.8c1.5,9.1,2.1,18.2,1.8,27.4c-0.1,3.6-0.4,7.2-0.7,10.8
		C864.3,581.9,863.9,582.9,863.6,584.3 M735.3,542.6c1,0.2,1.5,0.4,2,0.5c0.8,0.1,1.6,0,2.5,0c24.2,0,48.4,0,72.6,0
		c1.4,0,2.8-0.2,4.3-0.3c0-0.9,0-1.4-0.1-1.9c-1.9-6.4-5.2-11.8-10.6-15.9c-4-3-8.5-5-13.3-6.2c-9.3-2.4-18.7-2.6-28.1-0.4
		c-11.9,2.7-21.3,9-27.3,20C736.5,539.6,736,540.9,735.3,542.6"/>
	<path class="st0" d="M649.1,596.1c11,10.7,21.8,21.2,32.9,32c-2.8,2.6-5.3,5-7.9,7.3c-10.8,9.5-23,16.3-37,19.8
		c-10.4,2.6-21,3.3-31.6,2.7c-11.7-0.7-23.1-2.8-34-7.3c-24.2-10.2-40-28-47.6-53.1c-3.9-12.8-4.9-25.9-4.2-39.1
		c0.9-15.3,4.6-29.9,12.4-43.3c8.1-13.9,19.5-24.4,34-31.4c10.2-5,21-7.8,32.2-9.1c7.7-0.9,15.5-0.9,23.1-0.4
		c17.1,1.2,32.5,7.2,45.8,18.2c2.9,2.4,5.5,4.9,8.3,7.5c0.7,0.6,1.2,1.3,1.8,2c-2.6,3.7-28.6,30.6-30.9,31.9
		c-0.8-0.7-1.6-1.4-2.5-2.1c-9.3-7.9-20-12.3-32.3-12.1c-10.9,0.2-20.9,3.7-29.2,11c-6.3,5.6-10.5,12.7-12.7,20.8
		c-3.1,11.5-2.8,22.8,1.4,34c4.3,11.5,12.5,19.4,24.1,23.2c15.9,5.2,31.3,4,45.6-5.3c2-1.3,3.6-3,5.4-4.6
		C647.2,597.9,648,597.1,649.1,596.1"/>
	<path class="st0" d="M228.2,657.5v-140c-1.4-0.2-2.5-0.4-3.6-0.4c-3.2-0.1-6.4,0-9.6,0c-1,0-2-0.1-2.9-0.2
		c-0.7-2.9-0.7-39.8,0-42.7c5.1-0.7,10.5,0.3,16.1-0.6c0-2.5,0-4.6,0-6.8c-0.2-6.5,0.4-13,2-19.3c4.3-17.3,14.2-30.4,29.2-39.8
		c9.8-6.2,20.6-9.8,32.2-11.1c3.9-0.4,7.8-0.5,11.7-0.6c0.7,0,1.4,0.2,2,0.3c0.7,2.5,0.8,38.6,0.1,42c-1.2,0.1-2.5,0.1-3.8,0.2
		c-14.3,0.4-24.1,10.4-24.8,23.8c-0.1,2.7-0.3,5.3-0.4,8c0,1,0.2,2,0.3,3.3c1.5,0.2,2.8,0.4,4,0.4c10.7,0,21.4,0,32.2,0h3.5
		c0.9,2.6,1.1,38.9,0.3,42.9c-1.1,0.1-2.3,0.2-3.5,0.2c-10.8,0-21.6,0-32.5,0h-4c-0.1,1.8-0.3,3.2-0.3,4.6c0,23.8,0,47.6,0,71.4
		c0,20.2,0,40.4,0,60.6v3.8C273.6,658.1,232.2,658.3,228.2,657.5"/>
	<path class="st0" d="M932,657.8h-47.4c-0.6-2.5-0.9-256.6-0.3-261.4c0.6-0.1,1.3-0.4,1.9-0.4c14.5,0,29.1,0,43.6,0
		c0.5,0,1,0.1,1.8,0.3c0.1,1.3,0.3,2.6,0.3,3.9c0,13.7,0,27.4,0,41.1v211.6V657.8z"/>
	<path class="st0" d="M1000,657.5c-3.6,0.7-45,0.6-47.5,0c-0.6-2.3-0.8-256.6-0.2-261.2c0.7-0.1,1.5-0.3,2.2-0.3c14.3,0,28.7,0,43,0
		c0.6,0,1.2,0.1,2,0.2c0.1,0.7,0.4,1.4,0.4,2.1c0.1,0.9,0,1.9,0,2.8v251.8V657.5z"/>
	<path class="st0" d="M337,473.3c15.9,0,31.8,0,48,0v16.7c1.2-0.8,2-1.1,2.5-1.6c8-8.1,17.9-12.3,29.1-13.7
		c4.6-0.6,9.2-0.6,13.9-0.8c0.6,0,1.2,0.2,1.7,0.2c0.6,2.4,0.8,43.1,0.2,47.4c-1,0.1-2.1,0.2-3.2,0.3c-6.8,0.3-13.5,1.2-20,3.7
		c-9.2,3.6-16.4,9.4-20.6,18.5c-2.2,4.6-3.2,9.6-3.5,14.6c-0.1,1.6-0.1,3.3-0.1,4.9c0,29.9,0,59.8,0,89.7v4.2
		c-1,0.2-1.8,0.4-2.5,0.4c-14.5,0-29.1,0-43.6,0c-0.6,0-1.2-0.2-1.7-0.2c-0.2-0.2-0.3-0.3-0.3-0.3c-0.1-0.1-0.1-0.2-0.1-0.3
		c-0.1-0.8-0.2-1.6-0.2-2.5c0-60,0-120,0.1-180C336.6,474.4,336.8,474.1,337,473.3"/>
	<path class="st0" d="M499.8,657.8h-47.6c-0.7-2.3-0.9-179.2-0.2-183.6c0.7-0.1,1.5-0.4,2.2-0.4c14.4,0,28.9,0,43.3,0
		c0.7,0,1.4,0.2,1.9,0.2c0.2,0.2,0.3,0.3,0.4,0.4c0.1,0.1,0.1,0.2,0.1,0.3c0.1,0.6,0.2,1.2,0.2,1.8c0,59.9,0,119.8,0,179.6
		C500.1,656.6,500,657,499.8,657.8"/>
	<path class="st1" d="M776,360.3c-19.2,0-35.5,3.3-51,10.5c-8.8,4.1-16.7,9.4-23.5,16.3c-0.6,0.6-1.2,1.2-1.7,1.8
		c-4.1,4-10,4-13.9,0.2c-3-3-4-9.2,0.4-13.6c5.1-5.1,10.6-9.8,16.6-13.8c15.3-9.9,32.1-15.8,50-18.5c7.8-1.2,15.6-1.8,23.4-1.6
		c29.2,0.8,55.7,9.3,78.6,27.8c2.5,2,4.9,4.2,7.1,6.4c3.9,3.9,4.1,9.2,0.6,13c-3.6,3.9-9.2,4.2-13.4,0.9c-0.3-0.3-0.6-0.5-0.9-0.8
		c-13.7-13.4-30.3-21.6-48.8-25.8C791.1,361.1,782.5,360.1,776,360.3"/>
	<path class="st1" d="M774.6,398.1c-15.7-0.2-29.5,4.4-42.4,12.2c-4.3,2.6-8.4,5.6-12.5,8.5c-2.7,1.9-5.5,2.9-8.7,2.1
		c-3.6-0.9-6.1-3.1-6.9-6.7c-0.9-3.8,0-7.3,3.3-9.6c5-3.6,10.1-7.2,15.3-10.4c11-6.7,22.9-11.4,35.6-13.5
		c19.8-3.3,38.8-0.5,56.9,8.1c8.9,4.2,17.1,9.5,25,15.3c3.9,2.9,5.3,6.5,4.3,10.4c-1.7,6.3-9.1,8.9-14.7,5.2c-3-2-5.9-4.2-8.9-6.2
		c-5.7-3.9-11.8-7.2-18.2-9.8C793.5,399.9,784.1,397.7,774.6,398.1"/>
	<path class="st1" d="M822.5,438.2c0,7.6-7.6,12.1-14,8.7c-3.4-1.7-6.5-3.9-9.9-5.7c-15.5-8.4-31.3-8.4-47.2-1
		c-3.7,1.7-7.2,4-10.8,6.1c-3.4,1.9-6.8,2.2-10.3,0.2c-5.4-3.1-6.2-10.5-1.6-14.7c0.4-0.3,0.8-0.7,1.2-1
		c14.9-10.1,31.2-15.7,49.4-14.4c10.3,0.7,20,3.7,29,8.7c3.1,1.8,6.2,3.6,9.3,5.5C820.8,432.5,822.4,435.2,822.5,438.2"/>
</g>
</svg>
